M48
; DRILL file KiCad 10.0.5 date 2026-09-19T02:54:49
; FORMAT={-:-/ absolute / metric / decimal}
; #@! TF.CreationDate,2026-09-19T02:54:49-03:00
; #@! TF.GenerationSoftware,Kicad,Pcbnew,10.0.5
; #@! TF.FileFunction,MixedPlating,1,2
FMAT,2
METRIC
; #@! TA.AperFunction,Plated,PTH,ComponentDrill
T1C0.800
; #@! TA.AperFunction,Plated,PTH,ComponentDrill
T2C0.840
; #@! TA.AperFunction,Plated,PTH,ComponentDrill
T3C1.000
; #@! TA.AperFunction,Plated,PTH,ComponentDrill
T4C1.100
; #@! TA.AperFunction,NonPlated,NPTH,ComponentDrill
T5C2.100
%
G90
G05
T1
X141.0Y-87.0
X141.0Y-92.0
X146.0Y-87.0
X146.0Y-92.0
T2
X141.11Y-95.88
X141.11Y-111.12
X143.65Y-95.88
X143.65Y-111.12
X146.19Y-95.88
X146.19Y-111.12
X148.73Y-95.88
X148.73Y-111.12
X151.27Y-95.88
X151.27Y-111.12
X153.81Y-95.88
X153.81Y-111.12
X156.35Y-95.88
X156.35Y-111.12
X158.89Y-95.88
X158.89Y-111.12
T3
X136.0Y-119.5
X137.0Y-82.0
X140.46Y-119.5
X140.5Y-82.0
X142.5Y-102.5
X143.0Y-119.5
X145.54Y-119.5
X145.88Y-76.0
X145.88Y-78.54
X148.08Y-119.5
X148.42Y-76.0
X148.42Y-78.54
X150.96Y-76.0
X150.96Y-78.54
X153.5Y-76.0
X153.5Y-78.54
X157.7Y-86.0
X165.3Y-86.0
T4
X156.75Y-117.5
X156.75Y-122.0
X163.25Y-117.5
X163.25Y-122.0
T5
X133.0Y-73.5
X133.0Y-127.5
X167.0Y-73.5
X167.0Y-127.5
M30
