  0
SECTION
  2
HEADER
  9
$ACADVER
  1
AC1018
  9
$HANDSEED
  5
FFFFFFFF
  9
$ANGBASE
  50
0.0
  9
$ANGDIR
  70
1
  9
$MEASUREMENT
  70
1
  9
$INSUNITS
  70
4
  0
ENDSEC
  0
SECTION
  2
TABLES
  0
TABLE
  2
APPID
  5
1
330
0
100
AcDbSymbolTable
 70
1
  0
APPID
  5
2
330
1
100
AcDbSymbolTableRecord
100
AcDbRegAppTableRecord
  2
ACAD
 70
0
  0
ENDTAB
  0
TABLE
  2
LTYPE
  5
3
330
0
100
AcDbSymbolTable
 70
6
  0
LTYPE
  5
4
330
3
100
AcDbSymbolTableRecord
100
AcDbLinetypeTableRecord
  2
ByBlock
 70
0
  3

 72
65
 73
0
 40
0
  0
LTYPE
  5
5
330
3
100
AcDbSymbolTableRecord
100
AcDbLinetypeTableRecord
  2
ByLayer
 70
0
  3

 72
65
 73
0
 40
0
  0
LTYPE
  5
6
330
3
100
AcDbSymbolTableRecord
100
AcDbLinetypeTableRecord
  2
CONTINUOUS
 70
0
  3
Solid line
 72
65
 73
0
 40
0
  0
LTYPE
  5
7
330
3
100
AcDbSymbolTableRecord
100
AcDbLinetypeTableRecord
  2
DASHDOT
 70
0
  3
Dash Dot ____ _ ____ _
 72
65
 73
4
 40
2
 49
1.25
 74
0
 49
-0.25
 74
0
 49
0.25
 74
0
 49
-0.25
 74
0
  0
LTYPE
  5
8
330
3
100
AcDbSymbolTableRecord
100
AcDbLinetypeTableRecord
  2
DASHED
 70
0
  3
Dashed __ __ __ __ __
 72
65
 73
2
 40
0.75
 49
0.5
 74
0
 49
-0.25
 74
0
  0
LTYPE
  5
9
330
3
100
AcDbSymbolTableRecord
100
AcDbLinetypeTableRecord
  2
DOTTED
 70
0
  3
Dotted .  .  .  .
 72
65
 73
2
 40
0.2
 49
0.0
 74
0
 49
-0.2
 74
0
  0
ENDTAB
  0
TABLE
  2
STYLE
  5
A
330
0
100
AcDbSymbolTable
 70
4
  0
STYLE
  5
B
330
A
100
AcDbSymbolTableRecord
100
AcDbTextStyleTableRecord
  2
KICAD
 70
0
 40
0
 41
1
 42
1
 50
0
 71
0
  3
isocp.shx
  0
STYLE
  5
C
330
A
100
AcDbSymbolTableRecord
100
AcDbTextStyleTableRecord
  2
KICADB
 70
0
 40
0
 41
1
 42
1
 50
0
 71
0
  3
isocp.shx
  0
STYLE
  5
D
330
A
100
AcDbSymbolTableRecord
100
AcDbTextStyleTableRecord
  2
KICADI
 70
0
 40
0
 41
1
 42
1
 50
15
 71
0
  3
isocp.shx
  0
STYLE
  5
E
330
A
100
AcDbSymbolTableRecord
100
AcDbTextStyleTableRecord
  2
KICADBI
 70
0
 40
0
 41
1
 42
1
 50
15
 71
0
  3
isocp.shx
  0
ENDTAB
  0
TABLE
  2
LAYER
  5
F
330
0
100
AcDbSymbolTable
 70
2
  0
LAYER
  5
12
330
F
100
AcDbSymbolTableRecord
100
AcDbLayerTableRecord
  2
0
 70
0
 62
7
  6
CONTINUOUS
390
10
  0
LAYER
  5
13
330
F
100
AcDbSymbolTableRecord
100
AcDbLayerTableRecord
  2
Edge.Cuts
 70
0
 62
254
420
13685453
  6
CONTINUOUS
390
10
  0
ENDTAB
  0
TABLE
  2
VPORT
  5
14
330
0
100
AcDbSymbolTable
 70
0
  0
ENDTAB
  0
TABLE
  2
VIEW
  5
15
330
0
100
AcDbSymbolTable
 70
0
  0
ENDTAB
  0
TABLE
  2
UCS
  5
16
330
0
100
AcDbSymbolTable
 70
0
  0
ENDTAB
  0
TABLE
  2
DIMSTYLE
  5
17
330
0
100
AcDbSymbolTable
 70
1
100
AcDbDimStyleTable
 71
0
  0
DIMSTYLE
105
18
330
17
100
AcDbSymbolTableRecord
100
AcDbDimStyleTableRecord
  2
Standard
 70
0
  0
ENDTAB
  0
TABLE
  2
BLOCK_RECORD
  5
19
330
0
100
AcDbSymbolTable
 70
3
  0
BLOCK_RECORD
  5
1A
330
19
100
AcDbSymbolTableRecord
100
AcDbBlockTableRecord
  2
*Model_Space
340
1D
 70
0
280
1
281
0
  0
BLOCK_RECORD
  5
1B
330
19
100
AcDbSymbolTableRecord
100
AcDbBlockTableRecord
  2
*Paper_Space
340
1E
 70
0
280
1
281
0
  0
BLOCK_RECORD
  5
1C
330
19
100
AcDbSymbolTableRecord
100
AcDbBlockTableRecord
  2
*Paper_Space0
340
1F
 70
0
280
1
281
0
  0
ENDTAB
  0
ENDSEC
  0
SECTION
  2
BLOCKS
  0
BLOCK
  5
23
330
1A
100
AcDbEntity
  8
0
100
AcDbBlockBegin
  2
*Model_Space
 70
0
 10
0.0
 20
0.0
 30
0.0
  3
*Model_Space
  1

  0
ENDBLK
  5
22
330
1A
100
AcDbEntity
  8
0
100
AcDbBlockEnd
  0
BLOCK
  5
25
330
1B
100
AcDbEntity
 67
1
  8
0
100
AcDbBlockBegin
  2
*Paper_Space
 70
0
 10
0.0
 20
0.0
 30
0.0
  3
*Paper_Space
  1

  0
ENDBLK
  5
24
330
1B
100
AcDbEntity
 67
1
  8
0
100
AcDbBlockEnd
  0
BLOCK
  5
27
330
1C
100
AcDbEntity
 67
1
  8
0
100
AcDbBlockBegin
  2
*Paper_Space0
 70
0
 10
0.0
 20
0.0
 30
0.0
  3
*Paper_Space0
  1

  0
ENDBLK
  5
26
330
1C
100
AcDbEntity
 67
1
  8
0
100
AcDbBlockEnd
  0
ENDSEC
  0
SECTION
  2
ENTITIES
  0
LINE
  5
28
330
1A
100
AcDbEntity
  8
Edge.Cuts
  6
CONTINUOUS
100
AcDbLine
 10
168.
 20
-70.4749999999999943
 30
0
 11
168.2643159999999796
 21
-70.4923239999999964
 31
0
  0
LINE
  5
29
330
1A
100
AcDbEntity
  8
Edge.Cuts
  6
CONTINUOUS
100
AcDbLine
 10
168.2643159999999796
 20
-70.4923239999999964
 30
0
 11
168.5241089999999815
 21
-70.5439999999999969
 31
0
  0
LINE
  5
2A
330
1A
100
AcDbEntity
  8
Edge.Cuts
  6
CONTINUOUS
100
AcDbLine
 10
168.5241089999999815
 20
-70.5439999999999969
 30
0
 11
168.7749340000000018
 21
-70.6291439999999966
 31
0
  0
LINE
  5
2B
330
1A
100
AcDbEntity
  8
Edge.Cuts
  6
CONTINUOUS
100
AcDbLine
 10
168.7749340000000018
 20
-70.6291439999999966
 30
0
 11
169.0124999999999886
 21
-70.7462979999999959
 31
0
  0
LINE
  5
2C
330
1A
100
AcDbEntity
  8
Edge.Cuts
  6
CONTINUOUS
100
AcDbLine
 10
169.0124999999999886
 20
-70.7462979999999959
 30
0
 11
169.2327420000000018
 21
-70.8934589999999929
 31
0
  0
LINE
  5
2D
330
1A
100
AcDbEntity
  8
Edge.Cuts
  6
CONTINUOUS
100
AcDbLine
 10
169.2327420000000018
 20
-70.8934589999999929
 30
0
 11
169.4318920000000048
 21
-71.0681079999999952
 31
0
  0
LINE
  5
2E
330
1A
100
AcDbEntity
  8
Edge.Cuts
  6
CONTINUOUS
100
AcDbLine
 10
169.4318920000000048
 20
-71.0681079999999952
 30
0
 11
169.6065409999999929
 21
-71.2672579999999982
 31
0
  0
LINE
  5
2F
330
1A
100
AcDbEntity
  8
Edge.Cuts
  6
CONTINUOUS
100
AcDbLine
 10
169.6065409999999929
 20
-71.2672579999999982
 30
0
 11
169.7537020000000041
 21
-71.4874999999999972
 31
0
  0
LINE
  5
30
330
1A
100
AcDbEntity
  8
Edge.Cuts
  6
CONTINUOUS
100
AcDbLine
 10
169.7537020000000041
 20
-71.4874999999999972
 30
0
 11
169.8708560000000034
 21
-71.7250659999999982
 31
0
  0
LINE
  5
31
330
1A
100
AcDbEntity
  8
Edge.Cuts
  6
CONTINUOUS
100
AcDbLine
 10
169.8708560000000034
 20
-71.7250659999999982
 30
0
 11
169.9559999999999889
 21
-71.9758909999999901
 31
0
  0
LINE
  5
32
330
1A
100
AcDbEntity
  8
Edge.Cuts
  6
CONTINUOUS
100
AcDbLine
 10
169.9559999999999889
 20
-71.9758909999999901
 30
0
 11
170.0076760000000036
 21
-72.235683999999992
 31
0
  0
LINE
  5
33
330
1A
100
AcDbEntity
  8
Edge.Cuts
  6
CONTINUOUS
100
AcDbLine
 10
170.0076760000000036
 20
-72.235683999999992
 30
0
 11
170.0250000000000057
 21
-72.5
 31
0
  0
LINE
  5
34
330
1A
100
AcDbEntity
  8
Edge.Cuts
  6
CONTINUOUS
100
AcDbLine
 10
170.0250000000000057
 20
-72.5
 30
0
 11
170.0250000000000057
 21
-128.5
 31
0
  0
LINE
  5
35
330
1A
100
AcDbEntity
  8
Edge.Cuts
  6
CONTINUOUS
100
AcDbLine
 10
170.0250000000000057
 20
-128.5
 30
0
 11
170.0076760000000036
 21
-128.764316000000008
 31
0
  0
LINE
  5
36
330
1A
100
AcDbEntity
  8
Edge.Cuts
  6
CONTINUOUS
100
AcDbLine
 10
170.0076760000000036
 20
-128.764316000000008
 30
0
 11
169.9559999999999889
 21
-129.0241089999999815
 31
0
  0
LINE
  5
37
330
1A
100
AcDbEntity
  8
Edge.Cuts
  6
CONTINUOUS
100
AcDbLine
 10
169.9559999999999889
 20
-129.0241089999999815
 30
0
 11
169.8708560000000034
 21
-129.2749340000000018
 31
0
  0
LINE
  5
38
330
1A
100
AcDbEntity
  8
Edge.Cuts
  6
CONTINUOUS
100
AcDbLine
 10
169.8708560000000034
 20
-129.2749340000000018
 30
0
 11
169.7537020000000041
 21
-129.5124999999999886
 31
0
  0
LINE
  5
39
330
1A
100
AcDbEntity
  8
Edge.Cuts
  6
CONTINUOUS
100
AcDbLine
 10
169.7537020000000041
 20
-129.5124999999999886
 30
0
 11
169.6065409999999929
 21
-129.7327420000000018
 31
0
  0
LINE
  5
3A
330
1A
100
AcDbEntity
  8
Edge.Cuts
  6
CONTINUOUS
100
AcDbLine
 10
169.6065409999999929
 20
-129.7327420000000018
 30
0
 11
169.4318920000000048
 21
-129.9318920000000048
 31
0
  0
LINE
  5
3B
330
1A
100
AcDbEntity
  8
Edge.Cuts
  6
CONTINUOUS
100
AcDbLine
 10
169.4318920000000048
 20
-129.9318920000000048
 30
0
 11
169.2327420000000018
 21
-130.1065409999999929
 31
0
  0
LINE
  5
3C
330
1A
100
AcDbEntity
  8
Edge.Cuts
  6
CONTINUOUS
100
AcDbLine
 10
169.2327420000000018
 20
-130.1065409999999929
 30
0
 11
169.0124999999999886
 21
-130.2537020000000041
 31
0
  0
LINE
  5
3D
330
1A
100
AcDbEntity
  8
Edge.Cuts
  6
CONTINUOUS
100
AcDbLine
 10
169.0124999999999886
 20
-130.2537020000000041
 30
0
 11
168.7749340000000018
 21
-130.3708560000000034
 31
0
  0
LINE
  5
3E
330
1A
100
AcDbEntity
  8
Edge.Cuts
  6
CONTINUOUS
100
AcDbLine
 10
168.7749340000000018
 20
-130.3708560000000034
 30
0
 11
168.5241089999999815
 21
-130.4559999999999889
 31
0
  0
LINE
  5
3F
330
1A
100
AcDbEntity
  8
Edge.Cuts
  6
CONTINUOUS
100
AcDbLine
 10
168.5241089999999815
 20
-130.4559999999999889
 30
0
 11
168.2643159999999796
 21
-130.5076760000000036
 31
0
  0
LINE
  5
40
330
1A
100
AcDbEntity
  8
Edge.Cuts
  6
CONTINUOUS
100
AcDbLine
 10
168.2643159999999796
 20
-130.5076760000000036
 30
0
 11
168.
 21
-130.5250000000000057
 31
0
  0
LINE
  5
41
330
1A
100
AcDbEntity
  8
Edge.Cuts
  6
CONTINUOUS
100
AcDbLine
 10
168.
 20
-130.5250000000000057
 30
0
 11
132.
 21
-130.5250000000000057
 31
0
  0
LINE
  5
42
330
1A
100
AcDbEntity
  8
Edge.Cuts
  6
CONTINUOUS
100
AcDbLine
 10
132.
 20
-130.5250000000000057
 30
0
 11
131.735683999999992
 21
-130.5076760000000036
 31
0
  0
LINE
  5
43
330
1A
100
AcDbEntity
  8
Edge.Cuts
  6
CONTINUOUS
100
AcDbLine
 10
131.735683999999992
 20
-130.5076760000000036
 30
0
 11
131.4758909999999901
 21
-130.4559999999999889
 31
0
  0
LINE
  5
44
330
1A
100
AcDbEntity
  8
Edge.Cuts
  6
CONTINUOUS
100
AcDbLine
 10
131.4758909999999901
 20
-130.4559999999999889
 30
0
 11
131.2250659999999982
 21
-130.3708560000000034
 31
0
  0
LINE
  5
45
330
1A
100
AcDbEntity
  8
Edge.Cuts
  6
CONTINUOUS
100
AcDbLine
 10
131.2250659999999982
 20
-130.3708560000000034
 30
0
 11
130.9874999999999829
 21
-130.2537020000000041
 31
0
  0
LINE
  5
46
330
1A
100
AcDbEntity
  8
Edge.Cuts
  6
CONTINUOUS
100
AcDbLine
 10
130.9874999999999829
 20
-130.2537020000000041
 30
0
 11
130.7672579999999982
 21
-130.1065409999999929
 31
0
  0
LINE
  5
47
330
1A
100
AcDbEntity
  8
Edge.Cuts
  6
CONTINUOUS
100
AcDbLine
 10
130.7672579999999982
 20
-130.1065409999999929
 30
0
 11
130.5681079999999952
 21
-129.9318920000000048
 31
0
  0
LINE
  5
48
330
1A
100
AcDbEntity
  8
Edge.Cuts
  6
CONTINUOUS
100
AcDbLine
 10
130.5681079999999952
 20
-129.9318920000000048
 30
0
 11
130.3934590000000071
 21
-129.7327420000000018
 31
0
  0
LINE
  5
49
330
1A
100
AcDbEntity
  8
Edge.Cuts
  6
CONTINUOUS
100
AcDbLine
 10
130.3934590000000071
 20
-129.7327420000000018
 30
0
 11
130.2462979999999959
 21
-129.5124999999999886
 31
0
  0
LINE
  5
4A
330
1A
100
AcDbEntity
  8
Edge.Cuts
  6
CONTINUOUS
100
AcDbLine
 10
130.2462979999999959
 20
-129.5124999999999886
 30
0
 11
130.1291439999999966
 21
-129.2749340000000018
 31
0
  0
LINE
  5
4B
330
1A
100
AcDbEntity
  8
Edge.Cuts
  6
CONTINUOUS
100
AcDbLine
 10
130.1291439999999966
 20
-129.2749340000000018
 30
0
 11
130.0439999999999827
 21
-129.0241089999999815
 31
0
  0
LINE
  5
4C
330
1A
100
AcDbEntity
  8
Edge.Cuts
  6
CONTINUOUS
100
AcDbLine
 10
130.0439999999999827
 20
-129.0241089999999815
 30
0
 11
129.9923239999999964
 21
-128.764316000000008
 31
0
  0
LINE
  5
4D
330
1A
100
AcDbEntity
  8
Edge.Cuts
  6
CONTINUOUS
100
AcDbLine
 10
129.9923239999999964
 20
-128.764316000000008
 30
0
 11
129.9749999999999943
 21
-128.5
 31
0
  0
LINE
  5
4E
330
1A
100
AcDbEntity
  8
Edge.Cuts
  6
CONTINUOUS
100
AcDbLine
 10
129.9749999999999943
 20
-128.5
 30
0
 11
129.9749999999999943
 21
-72.5
 31
0
  0
LINE
  5
4F
330
1A
100
AcDbEntity
  8
Edge.Cuts
  6
CONTINUOUS
100
AcDbLine
 10
129.9749999999999943
 20
-72.5
 30
0
 11
129.9923239999999964
 21
-72.235683999999992
 31
0
  0
LINE
  5
50
330
1A
100
AcDbEntity
  8
Edge.Cuts
  6
CONTINUOUS
100
AcDbLine
 10
129.9923239999999964
 20
-72.235683999999992
 30
0
 11
130.0439999999999827
 21
-71.9758909999999901
 31
0
  0
LINE
  5
51
330
1A
100
AcDbEntity
  8
Edge.Cuts
  6
CONTINUOUS
100
AcDbLine
 10
130.0439999999999827
 20
-71.9758909999999901
 30
0
 11
130.1291439999999966
 21
-71.7250659999999982
 31
0
  0
LINE
  5
52
330
1A
100
AcDbEntity
  8
Edge.Cuts
  6
CONTINUOUS
100
AcDbLine
 10
130.1291439999999966
 20
-71.7250659999999982
 30
0
 11
130.2462979999999959
 21
-71.4874999999999972
 31
0
  0
LINE
  5
53
330
1A
100
AcDbEntity
  8
Edge.Cuts
  6
CONTINUOUS
100
AcDbLine
 10
130.2462979999999959
 20
-71.4874999999999972
 30
0
 11
130.3934590000000071
 21
-71.2672579999999982
 31
0
  0
LINE
  5
54
330
1A
100
AcDbEntity
  8
Edge.Cuts
  6
CONTINUOUS
100
AcDbLine
 10
130.3934590000000071
 20
-71.2672579999999982
 30
0
 11
130.5681079999999952
 21
-71.0681079999999952
 31
0
  0
LINE
  5
55
330
1A
100
AcDbEntity
  8
Edge.Cuts
  6
CONTINUOUS
100
AcDbLine
 10
130.5681079999999952
 20
-71.0681079999999952
 30
0
 11
130.7672579999999982
 21
-70.8934589999999929
 31
0
  0
LINE
  5
56
330
1A
100
AcDbEntity
  8
Edge.Cuts
  6
CONTINUOUS
100
AcDbLine
 10
130.7672579999999982
 20
-70.8934589999999929
 30
0
 11
130.9874999999999829
 21
-70.7462979999999959
 31
0
  0
LINE
  5
57
330
1A
100
AcDbEntity
  8
Edge.Cuts
  6
CONTINUOUS
100
AcDbLine
 10
130.9874999999999829
 20
-70.7462979999999959
 30
0
 11
131.2250659999999982
 21
-70.6291439999999966
 31
0
  0
LINE
  5
58
330
1A
100
AcDbEntity
  8
Edge.Cuts
  6
CONTINUOUS
100
AcDbLine
 10
131.2250659999999982
 20
-70.6291439999999966
 30
0
 11
131.4758909999999901
 21
-70.5439999999999969
 31
0
  0
LINE
  5
59
330
1A
100
AcDbEntity
  8
Edge.Cuts
  6
CONTINUOUS
100
AcDbLine
 10
131.4758909999999901
 20
-70.5439999999999969
 30
0
 11
131.735683999999992
 21
-70.4923239999999964
 31
0
  0
LINE
  5
5A
330
1A
100
AcDbEntity
  8
Edge.Cuts
  6
CONTINUOUS
100
AcDbLine
 10
131.735683999999992
 20
-70.4923239999999964
 30
0
 11
132.
 21
-70.4749999999999943
 31
0
  0
LINE
  5
5B
330
1A
100
AcDbEntity
  8
Edge.Cuts
  6
CONTINUOUS
100
AcDbLine
 10
132.
 20
-70.4749999999999943
 30
0
 11
168.
 21
-70.4749999999999943
 31
0
  0
LINE
  5
5C
330
1A
100
AcDbEntity
  8
Edge.Cuts
  6
CONTINUOUS
100
AcDbLine
 10
132.
 20
-70.5249999999999915
 30
0
 11
131.8705520000000035
 21
-70.5249999999999915
 31
0
  0
LINE
  5
5D
330
1A
100
AcDbEntity
  8
Edge.Cuts
  6
CONTINUOUS
100
AcDbLine
 10
131.8705520000000035
 20
-70.5249999999999915
 30
0
 11
131.6138699999999915
 21
-70.5587919999999968
 31
0
  0
LINE
  5
5E
330
1A
100
AcDbEntity
  8
Edge.Cuts
  6
CONTINUOUS
100
AcDbLine
 10
131.6138699999999915
 20
-70.5587919999999968
 30
0
 11
131.3637949999999819
 21
-70.6257999999999981
 31
0
  0
LINE
  5
5F
330
1A
100
AcDbEntity
  8
Edge.Cuts
  6
CONTINUOUS
100
AcDbLine
 10
131.3637949999999819
 20
-70.6257999999999981
 30
0
 11
131.1246050000000025
 21
-70.7248749999999973
 31
0
  0
LINE
  5
60
330
1A
100
AcDbEntity
  8
Edge.Cuts
  6
CONTINUOUS
100
AcDbLine
 10
131.1246050000000025
 20
-70.7248749999999973
 30
0
 11
130.9003940000000057
 21
-70.8543229999999937
 31
0
  0
LINE
  5
61
330
1A
100
AcDbEntity
  8
Edge.Cuts
  6
CONTINUOUS
100
AcDbLine
 10
130.9003940000000057
 20
-70.8543229999999937
 30
0
 11
130.6949970000000008
 21
-71.0119299999999924
 31
0
  0
LINE
  5
62
330
1A
100
AcDbEntity
  8
Edge.Cuts
  6
CONTINUOUS
100
AcDbLine
 10
130.6949970000000008
 20
-71.0119299999999924
 30
0
 11
130.5119300000000067
 21
-71.1949970000000008
 31
0
  0
LINE
  5
63
330
1A
100
AcDbEntity
  8
Edge.Cuts
  6
CONTINUOUS
100
AcDbLine
 10
130.5119300000000067
 20
-71.1949970000000008
 30
0
 11
130.3543229999999937
 21
-71.4003939999999915
 31
0
  0
LINE
  5
64
330
1A
100
AcDbEntity
  8
Edge.Cuts
  6
CONTINUOUS
100
AcDbLine
 10
130.3543229999999937
 20
-71.4003939999999915
 30
0
 11
130.2248749999999973
 21
-71.6246050000000025
 31
0
  0
LINE
  5
65
330
1A
100
AcDbEntity
  8
Edge.Cuts
  6
CONTINUOUS
100
AcDbLine
 10
130.2248749999999973
 20
-71.6246050000000025
 30
0
 11
130.1257999999999981
 21
-71.8637949999999961
 31
0
  0
LINE
  5
66
330
1A
100
AcDbEntity
  8
Edge.Cuts
  6
CONTINUOUS
100
AcDbLine
 10
130.1257999999999981
 20
-71.8637949999999961
 30
0
 11
130.0587919999999826
 21
-72.1138699999999915
 31
0
  0
LINE
  5
67
330
1A
100
AcDbEntity
  8
Edge.Cuts
  6
CONTINUOUS
100
AcDbLine
 10
130.0587919999999826
 20
-72.1138699999999915
 30
0
 11
130.0250000000000057
 21
-72.3705520000000035
 31
0
  0
LINE
  5
68
330
1A
100
AcDbEntity
  8
Edge.Cuts
  6
CONTINUOUS
100
AcDbLine
 10
130.0250000000000057
 20
-72.3705520000000035
 30
0
 11
130.0250000000000057
 21
-72.5
 31
0
  0
LINE
  5
69
330
1A
100
AcDbEntity
  8
Edge.Cuts
  6
CONTINUOUS
100
AcDbLine
 10
130.0250000000000057
 20
-72.5
 30
0
 11
130.0250000000000057
 21
-128.5
 31
0
  0
LINE
  5
6A
330
1A
100
AcDbEntity
  8
Edge.Cuts
  6
CONTINUOUS
100
AcDbLine
 10
130.0250000000000057
 20
-128.5
 30
0
 11
130.0250000000000057
 21
-128.6294479999999965
 31
0
  0
LINE
  5
6B
330
1A
100
AcDbEntity
  8
Edge.Cuts
  6
CONTINUOUS
100
AcDbLine
 10
130.0250000000000057
 20
-128.6294479999999965
 30
0
 11
130.0587919999999826
 21
-128.8861299999999801
 31
0
  0
LINE
  5
6C
330
1A
100
AcDbEntity
  8
Edge.Cuts
  6
CONTINUOUS
100
AcDbLine
 10
130.0587919999999826
 20
-128.8861299999999801
 30
0
 11
130.1257999999999981
 21
-129.1362049999999897
 31
0
  0
LINE
  5
6D
330
1A
100
AcDbEntity
  8
Edge.Cuts
  6
CONTINUOUS
100
AcDbLine
 10
130.1257999999999981
 20
-129.1362049999999897
 30
0
 11
130.2248749999999973
 21
-129.3753949999999975
 31
0
  0
LINE
  5
6E
330
1A
100
AcDbEntity
  8
Edge.Cuts
  6
CONTINUOUS
100
AcDbLine
 10
130.2248749999999973
 20
-129.3753949999999975
 30
0
 11
130.3543229999999937
 21
-129.5996059999999943
 31
0
  0
LINE
  5
6F
330
1A
100
AcDbEntity
  8
Edge.Cuts
  6
CONTINUOUS
100
AcDbLine
 10
130.3543229999999937
 20
-129.5996059999999943
 30
0
 11
130.5119300000000067
 21
-129.8050029999999992
 31
0
  0
LINE
  5
70
330
1A
100
AcDbEntity
  8
Edge.Cuts
  6
CONTINUOUS
100
AcDbLine
 10
130.5119300000000067
 20
-129.8050029999999992
 30
0
 11
130.6949970000000008
 21
-129.9880699999999933
 31
0
  0
LINE
  5
71
330
1A
100
AcDbEntity
  8
Edge.Cuts
  6
CONTINUOUS
100
AcDbLine
 10
130.6949970000000008
 20
-129.9880699999999933
 30
0
 11
130.9003940000000057
 21
-130.1456770000000063
 31
0
  0
LINE
  5
72
330
1A
100
AcDbEntity
  8
Edge.Cuts
  6
CONTINUOUS
100
AcDbLine
 10
130.9003940000000057
 20
-130.1456770000000063
 30
0
 11
131.1246050000000025
 21
-130.2751250000000027
 31
0
  0
LINE
  5
73
330
1A
100
AcDbEntity
  8
Edge.Cuts
  6
CONTINUOUS
100
AcDbLine
 10
131.1246050000000025
 20
-130.2751250000000027
 30
0
 11
131.3637949999999819
 21
-130.3742000000000019
 31
0
  0
LINE
  5
74
330
1A
100
AcDbEntity
  8
Edge.Cuts
  6
CONTINUOUS
100
AcDbLine
 10
131.3637949999999819
 20
-130.3742000000000019
 30
0
 11
131.6138699999999915
 21
-130.4412079999999889
 31
0
  0
LINE
  5
75
330
1A
100
AcDbEntity
  8
Edge.Cuts
  6
CONTINUOUS
100
AcDbLine
 10
131.6138699999999915
 20
-130.4412079999999889
 30
0
 11
131.8705520000000035
 21
-130.4749999999999943
 31
0
  0
LINE
  5
76
330
1A
100
AcDbEntity
  8
Edge.Cuts
  6
CONTINUOUS
100
AcDbLine
 10
131.8705520000000035
 20
-130.4749999999999943
 30
0
 11
132.
 21
-130.4749999999999943
 31
0
  0
LINE
  5
77
330
1A
100
AcDbEntity
  8
Edge.Cuts
  6
CONTINUOUS
100
AcDbLine
 10
132.
 20
-130.4749999999999943
 30
0
 11
168.
 21
-130.4749999999999943
 31
0
  0
LINE
  5
78
330
1A
100
AcDbEntity
  8
Edge.Cuts
  6
CONTINUOUS
100
AcDbLine
 10
168.
 20
-130.4749999999999943
 30
0
 11
168.1294479999999965
 21
-130.4749999999999943
 31
0
  0
LINE
  5
79
330
1A
100
AcDbEntity
  8
Edge.Cuts
  6
CONTINUOUS
100
AcDbLine
 10
168.1294479999999965
 20
-130.4749999999999943
 30
0
 11
168.3861299999999801
 21
-130.4412079999999889
 31
0
  0
LINE
  5
7A
330
1A
100
AcDbEntity
  8
Edge.Cuts
  6
CONTINUOUS
100
AcDbLine
 10
168.3861299999999801
 20
-130.4412079999999889
 30
0
 11
168.6362049999999897
 21
-130.3742000000000019
 31
0
  0
LINE
  5
7B
330
1A
100
AcDbEntity
  8
Edge.Cuts
  6
CONTINUOUS
100
AcDbLine
 10
168.6362049999999897
 20
-130.3742000000000019
 30
0
 11
168.8753949999999975
 21
-130.2751250000000027
 31
0
  0
LINE
  5
7C
330
1A
100
AcDbEntity
  8
Edge.Cuts
  6
CONTINUOUS
100
AcDbLine
 10
168.8753949999999975
 20
-130.2751250000000027
 30
0
 11
169.0996059999999943
 21
-130.1456770000000063
 31
0
  0
LINE
  5
7D
330
1A
100
AcDbEntity
  8
Edge.Cuts
  6
CONTINUOUS
100
AcDbLine
 10
169.0996059999999943
 20
-130.1456770000000063
 30
0
 11
169.3050029999999992
 21
-129.9880699999999933
 31
0
  0
LINE
  5
7E
330
1A
100
AcDbEntity
  8
Edge.Cuts
  6
CONTINUOUS
100
AcDbLine
 10
169.3050029999999992
 20
-129.9880699999999933
 30
0
 11
169.4880699999999933
 21
-129.8050029999999992
 31
0
  0
LINE
  5
7F
330
1A
100
AcDbEntity
  8
Edge.Cuts
  6
CONTINUOUS
100
AcDbLine
 10
169.4880699999999933
 20
-129.8050029999999992
 30
0
 11
169.6456770000000063
 21
-129.5996059999999943
 31
0
  0
LINE
  5
80
330
1A
100
AcDbEntity
  8
Edge.Cuts
  6
CONTINUOUS
100
AcDbLine
 10
169.6456770000000063
 20
-129.5996059999999943
 30
0
 11
169.7751250000000027
 21
-129.3753949999999975
 31
0
  0
LINE
  5
81
330
1A
100
AcDbEntity
  8
Edge.Cuts
  6
CONTINUOUS
100
AcDbLine
 10
169.7751250000000027
 20
-129.3753949999999975
 30
0
 11
169.8742000000000019
 21
-129.1362049999999897
 31
0
  0
LINE
  5
82
330
1A
100
AcDbEntity
  8
Edge.Cuts
  6
CONTINUOUS
100
AcDbLine
 10
169.8742000000000019
 20
-129.1362049999999897
 30
0
 11
169.9412079999999889
 21
-128.8861299999999801
 31
0
  0
LINE
  5
83
330
1A
100
AcDbEntity
  8
Edge.Cuts
  6
CONTINUOUS
100
AcDbLine
 10
169.9412079999999889
 20
-128.8861299999999801
 30
0
 11
169.9749999999999943
 21
-128.6294479999999965
 31
0
  0
LINE
  5
84
330
1A
100
AcDbEntity
  8
Edge.Cuts
  6
CONTINUOUS
100
AcDbLine
 10
169.9749999999999943
 20
-128.6294479999999965
 30
0
 11
169.9749999999999943
 21
-128.5
 31
0
  0
LINE
  5
85
330
1A
100
AcDbEntity
  8
Edge.Cuts
  6
CONTINUOUS
100
AcDbLine
 10
169.9749999999999943
 20
-128.5
 30
0
 11
169.9749999999999943
 21
-72.5
 31
0
  0
LINE
  5
86
330
1A
100
AcDbEntity
  8
Edge.Cuts
  6
CONTINUOUS
100
AcDbLine
 10
169.9749999999999943
 20
-72.5
 30
0
 11
169.9749999999999943
 21
-72.3705520000000035
 31
0
  0
LINE
  5
87
330
1A
100
AcDbEntity
  8
Edge.Cuts
  6
CONTINUOUS
100
AcDbLine
 10
169.9749999999999943
 20
-72.3705520000000035
 30
0
 11
169.9412079999999889
 21
-72.1138699999999915
 31
0
  0
LINE
  5
88
330
1A
100
AcDbEntity
  8
Edge.Cuts
  6
CONTINUOUS
100
AcDbLine
 10
169.9412079999999889
 20
-72.1138699999999915
 30
0
 11
169.8742000000000019
 21
-71.8637949999999961
 31
0
  0
LINE
  5
89
330
1A
100
AcDbEntity
  8
Edge.Cuts
  6
CONTINUOUS
100
AcDbLine
 10
169.8742000000000019
 20
-71.8637949999999961
 30
0
 11
169.7751250000000027
 21
-71.6246050000000025
 31
0
  0
LINE
  5
8A
330
1A
100
AcDbEntity
  8
Edge.Cuts
  6
CONTINUOUS
100
AcDbLine
 10
169.7751250000000027
 20
-71.6246050000000025
 30
0
 11
169.6456770000000063
 21
-71.4003939999999915
 31
0
  0
LINE
  5
8B
330
1A
100
AcDbEntity
  8
Edge.Cuts
  6
CONTINUOUS
100
AcDbLine
 10
169.6456770000000063
 20
-71.4003939999999915
 30
0
 11
169.4880699999999933
 21
-71.1949970000000008
 31
0
  0
LINE
  5
8C
330
1A
100
AcDbEntity
  8
Edge.Cuts
  6
CONTINUOUS
100
AcDbLine
 10
169.4880699999999933
 20
-71.1949970000000008
 30
0
 11
169.3050029999999992
 21
-71.0119299999999924
 31
0
  0
LINE
  5
8D
330
1A
100
AcDbEntity
  8
Edge.Cuts
  6
CONTINUOUS
100
AcDbLine
 10
169.3050029999999992
 20
-71.0119299999999924
 30
0
 11
169.0996059999999943
 21
-70.8543229999999937
 31
0
  0
LINE
  5
8E
330
1A
100
AcDbEntity
  8
Edge.Cuts
  6
CONTINUOUS
100
AcDbLine
 10
169.0996059999999943
 20
-70.8543229999999937
 30
0
 11
168.8753949999999975
 21
-70.7248749999999973
 31
0
  0
LINE
  5
8F
330
1A
100
AcDbEntity
  8
Edge.Cuts
  6
CONTINUOUS
100
AcDbLine
 10
168.8753949999999975
 20
-70.7248749999999973
 30
0
 11
168.6362049999999897
 21
-70.6257999999999981
 31
0
  0
LINE
  5
90
330
1A
100
AcDbEntity
  8
Edge.Cuts
  6
CONTINUOUS
100
AcDbLine
 10
168.6362049999999897
 20
-70.6257999999999981
 30
0
 11
168.3861299999999801
 21
-70.5587919999999968
 31
0
  0
LINE
  5
91
330
1A
100
AcDbEntity
  8
Edge.Cuts
  6
CONTINUOUS
100
AcDbLine
 10
168.3861299999999801
 20
-70.5587919999999968
 30
0
 11
168.1294479999999965
 21
-70.5249999999999915
 31
0
  0
LINE
  5
92
330
1A
100
AcDbEntity
  8
Edge.Cuts
  6
CONTINUOUS
100
AcDbLine
 10
168.1294479999999965
 20
-70.5249999999999915
 30
0
 11
168.
 21
-70.5249999999999915
 31
0
  0
LINE
  5
93
330
1A
100
AcDbEntity
  8
Edge.Cuts
  6
CONTINUOUS
100
AcDbLine
 10
168.
 20
-70.5249999999999915
 30
0
 11
132.
 21
-70.5249999999999915
 31
0
  0
ENDSEC
  0
SECTION
  2
OBJECTS
  0
DICTIONARY
  5
20
330
0
100
AcDbDictionary
281
1
  3
ACAD_GROUP
350
94
  3
ACAD_LAYOUT
350
21
  3
ACAD_PLOTSTYLENAME
350
11
  0
DICTIONARY
  5
94
330
20
100
AcDbDictionary
281
1
  0
ACDBDICTIONARYWDFLT
  5
11
330
20
100
AcDbDictionary
281
1
  3
Normal
350
10
100
AcDbDictionaryWithDefault
340
10
  0
ACDBPLACEHOLDER
  5
10
330
11
  0
DICTIONARY
  5
21
330
20
100
AcDbDictionary
281
1
  3
Model
350
1D
  3
Layout1
350
1E
  3
Layout2
350
1F
  0
LAYOUT
  5
1D
330
21
100
AcDbPlotSettings
  1

  2
none_device
  4
A3
  6

 40
0.0
 41
0.0
 42
0.0
 43
0.0
 44
420.0
 45
297.0
 46
0.0
 47
0.0
 48
0.0
 49
0.0
140
0.0
141
0.0
142
1.0
143
1.0
 70
1024
 72
1
 73
0
 74
5
  7

 75
16
 76
0
 77
2
 78
300
147
1.0
148
0.0
149
0.0
100
AcDbLayout
  1
Model
 70
1
 71
0
 10
0.0
 20
0.0
 11
420.0
 21
297.0
 12
0.0
 22
0.0
 32
0.0
 14
1e+20
 24
1e+20
 34
1e+20
 15
-1e+20
 25
-1e+20
 35
-1e+20
146
0.0
 13
0.0
 23
0.0
 33
0.0
 16
1.0
 26
0.0
 36
0.0
 17
0.0
 27
1.0
 37
0.0
 76
0
330
1A
  0
LAYOUT
  5
1E
330
21
100
AcDbPlotSettings
  1

  2
none_device
  4
A3
  6

 40
0.0
 41
0.0
 42
0.0
 43
0.0
 44
420.0
 45
297.0
 46
0.0
 47
0.0
 48
0.0
 49
0.0
140
0.0
141
0.0
142
1.0
143
1.0
 70
0
 72
1
 73
0
 74
5
  7

 75
16
 76
0
 77
2
 78
300
147
1.0
148
0.0
149
0.0
100
AcDbLayout
  1
Layout1
 70
1
 71
1
 10
0.0
 20
0.0
 11
420.0
 21
297.0
 12
0.0
 22
0.0
 32
0.0
 14
1e+20
 24
1e+20
 34
1e+20
 15
-1e+20
 25
-1e+20
 35
-1e+20
146
0.0
 13
0.0
 23
0.0
 33
0.0
 16
1.0
 26
0.0
 36
0.0
 17
0.0
 27
1.0
 37
0.0
 76
0
330
1B
  0
LAYOUT
  5
1F
330
21
100
AcDbPlotSettings
  1

  2
none_device
  4
A3
  6

 40
0.0
 41
0.0
 42
0.0
 43
0.0
 44
420.0
 45
297.0
 46
0.0
 47
0.0
 48
0.0
 49
0.0
140
0.0
141
0.0
142
1.0
143
1.0
 70
0
 72
1
 73
0
 74
5
  7

 75
16
 76
0
 77
2
 78
300
147
1.0
148
0.0
149
0.0
100
AcDbLayout
  1
Layout2
 70
1
 71
2
 10
0.0
 20
0.0
 11
420.0
 21
297.0
 12
0.0
 22
0.0
 32
0.0
 14
1e+20
 24
1e+20
 34
1e+20
 15
-1e+20
 25
-1e+20
 35
-1e+20
146
0.0
 13
0.0
 23
0.0
 33
0.0
 16
1.0
 26
0.0
 36
0.0
 17
0.0
 27
1.0
 37
0.0
 76
0
330
1C
  0
ENDSEC
  0
EOF
