  0
SECTION
  2
HEADER
  9
$ACADVER
  1
AC1018
  9
$HANDSEED
  5
FFFFFFFF
  9
$ANGBASE
  50
0.0
  9
$ANGDIR
  70
1
  9
$MEASUREMENT
  70
0
  9
$INSUNITS
  70
1
  0
ENDSEC
  0
SECTION
  2
TABLES
  0
TABLE
  2
APPID
  5
1
330
0
100
AcDbSymbolTable
 70
1
  0
APPID
  5
2
330
1
100
AcDbSymbolTableRecord
100
AcDbRegAppTableRecord
  2
ACAD
 70
0
  0
ENDTAB
  0
TABLE
  2
LTYPE
  5
3
330
0
100
AcDbSymbolTable
 70
6
  0
LTYPE
  5
4
330
3
100
AcDbSymbolTableRecord
100
AcDbLinetypeTableRecord
  2
ByBlock
 70
0
  3

 72
65
 73
0
 40
0
  0
LTYPE
  5
5
330
3
100
AcDbSymbolTableRecord
100
AcDbLinetypeTableRecord
  2
ByLayer
 70
0
  3

 72
65
 73
0
 40
0
  0
LTYPE
  5
6
330
3
100
AcDbSymbolTableRecord
100
AcDbLinetypeTableRecord
  2
CONTINUOUS
 70
0
  3
Solid line
 72
65
 73
0
 40
0
  0
LTYPE
  5
7
330
3
100
AcDbSymbolTableRecord
100
AcDbLinetypeTableRecord
  2
DASHDOT
 70
0
  3
Dash Dot ____ _ ____ _
 72
65
 73
4
 40
2
 49
1.25
 74
0
 49
-0.25
 74
0
 49
0.25
 74
0
 49
-0.25
 74
0
  0
LTYPE
  5
8
330
3
100
AcDbSymbolTableRecord
100
AcDbLinetypeTableRecord
  2
DASHED
 70
0
  3
Dashed __ __ __ __ __
 72
65
 73
2
 40
0.75
 49
0.5
 74
0
 49
-0.25
 74
0
  0
LTYPE
  5
9
330
3
100
AcDbSymbolTableRecord
100
AcDbLinetypeTableRecord
  2
DOTTED
 70
0
  3
Dotted .  .  .  .
 72
65
 73
2
 40
0.2
 49
0.0
 74
0
 49
-0.2
 74
0
  0
ENDTAB
  0
TABLE
  2
STYLE
  5
A
330
0
100
AcDbSymbolTable
 70
4
  0
STYLE
  5
B
330
A
100
AcDbSymbolTableRecord
100
AcDbTextStyleTableRecord
  2
KICAD
 70
0
 40
0
 41
1
 42
1
 50
0
 71
0
  3
isocp.shx
  0
STYLE
  5
C
330
A
100
AcDbSymbolTableRecord
100
AcDbTextStyleTableRecord
  2
KICADB
 70
0
 40
0
 41
1
 42
1
 50
0
 71
0
  3
isocp.shx
  0
STYLE
  5
D
330
A
100
AcDbSymbolTableRecord
100
AcDbTextStyleTableRecord
  2
KICADI
 70
0
 40
0
 41
1
 42
1
 50
15
 71
0
  3
isocp.shx
  0
STYLE
  5
E
330
A
100
AcDbSymbolTableRecord
100
AcDbTextStyleTableRecord
  2
KICADBI
 70
0
 40
0
 41
1
 42
1
 50
15
 71
0
  3
isocp.shx
  0
ENDTAB
  0
TABLE
  2
LAYER
  5
F
330
0
100
AcDbSymbolTable
 70
3
  0
LAYER
  5
12
330
F
100
AcDbSymbolTableRecord
100
AcDbLayerTableRecord
  2
0
 70
0
 62
7
  6
CONTINUOUS
390
10
  0
LAYER
  5
13
330
F
100
AcDbSymbolTableRecord
100
AcDbLayerTableRecord
  2
B.Cu
 70
0
 62
153
420
5078980
  6
CONTINUOUS
390
10
  0
LAYER
  5
14
330
F
100
AcDbSymbolTableRecord
100
AcDbLayerTableRecord
  2
Edge.Cuts
 70
0
 62
254
420
13685453
  6
CONTINUOUS
390
10
  0
ENDTAB
  0
TABLE
  2
VPORT
  5
15
330
0
100
AcDbSymbolTable
 70
0
  0
ENDTAB
  0
TABLE
  2
VIEW
  5
16
330
0
100
AcDbSymbolTable
 70
0
  0
ENDTAB
  0
TABLE
  2
UCS
  5
17
330
0
100
AcDbSymbolTable
 70
0
  0
ENDTAB
  0
TABLE
  2
DIMSTYLE
  5
18
330
0
100
AcDbSymbolTable
 70
1
100
AcDbDimStyleTable
 71
0
  0
DIMSTYLE
105
19
330
18
100
AcDbSymbolTableRecord
100
AcDbDimStyleTableRecord
  2
Standard
 70
0
  0
ENDTAB
  0
TABLE
  2
BLOCK_RECORD
  5
1A
330
0
100
AcDbSymbolTable
 70
3
  0
BLOCK_RECORD
  5
1B
330
1A
100
AcDbSymbolTableRecord
100
AcDbBlockTableRecord
  2
*Model_Space
340
1E
 70
0
280
1
281
0
  0
BLOCK_RECORD
  5
1C
330
1A
100
AcDbSymbolTableRecord
100
AcDbBlockTableRecord
  2
*Paper_Space
340
1F
 70
0
280
1
281
0
  0
BLOCK_RECORD
  5
1D
330
1A
100
AcDbSymbolTableRecord
100
AcDbBlockTableRecord
  2
*Paper_Space0
340
20
 70
0
280
1
281
0
  0
ENDTAB
  0
ENDSEC
  0
SECTION
  2
BLOCKS
  0
BLOCK
  5
24
330
1B
100
AcDbEntity
  8
0
100
AcDbBlockBegin
  2
*Model_Space
 70
0
 10
0.0
 20
0.0
 30
0.0
  3
*Model_Space
  1

  0
ENDBLK
  5
23
330
1B
100
AcDbEntity
  8
0
100
AcDbBlockEnd
  0
BLOCK
  5
26
330
1C
100
AcDbEntity
 67
1
  8
0
100
AcDbBlockBegin
  2
*Paper_Space
 70
0
 10
0.0
 20
0.0
 30
0.0
  3
*Paper_Space
  1

  0
ENDBLK
  5
25
330
1C
100
AcDbEntity
 67
1
  8
0
100
AcDbBlockEnd
  0
BLOCK
  5
28
330
1D
100
AcDbEntity
 67
1
  8
0
100
AcDbBlockBegin
  2
*Paper_Space0
 70
0
 10
0.0
 20
0.0
 30
0.0
  3
*Paper_Space0
  1

  0
ENDBLK
  5
27
330
1D
100
AcDbEntity
 67
1
  8
0
100
AcDbBlockEnd
  0
ENDSEC
  0
SECTION
  2
ENTITIES
  0
LINE
  5
29
330
1B
100
AcDbEntity
  8
Edge.Cuts
  6
CONTINUOUS
100
AcDbLine
 10
6.5748031496062991
 20
-2.7746062992125982
 30
0
 11
6.587251929133858
 21
-2.7752587007874014
 31
0
  0
LINE
  5
2A
330
1B
100
AcDbEntity
  8
Edge.Cuts
  6
CONTINUOUS
100
AcDbLine
 10
6.587251929133858
 20
-2.7752587007874014
 30
0
 11
6.5995642913385826
 21
-2.7772088188976376
 31
0
  0
LINE
  5
2B
330
1B
100
AcDbEntity
  8
Edge.Cuts
  6
CONTINUOUS
100
AcDbLine
 10
6.5995642913385826
 20
-2.7772088188976376
 30
0
 11
6.6116053543307087
 21
-2.7804351968503935
 31
0
  0
LINE
  5
2C
330
1B
100
AcDbEntity
  8
Edge.Cuts
  6
CONTINUOUS
100
AcDbLine
 10
6.6116053543307087
 20
-2.7804351968503935
 30
0
 11
6.6232432283464568
 21
-2.784902559055118
 31
0
  0
LINE
  5
2D
330
1B
100
AcDbEntity
  8
Edge.Cuts
  6
CONTINUOUS
100
AcDbLine
 10
6.6232432283464568
 20
-2.784902559055118
 30
0
 11
6.6343503937007871
 21
-2.7905619685039369
 31
0
  0
LINE
  5
2E
330
1B
100
AcDbEntity
  8
Edge.Cuts
  6
CONTINUOUS
100
AcDbLine
 10
6.6343503937007871
 20
-2.7905619685039369
 30
0
 11
6.6448051181102361
 21
-2.7973513385826769
 31
0
  0
LINE
  5
2F
330
1B
100
AcDbEntity
  8
Edge.Cuts
  6
CONTINUOUS
100
AcDbLine
 10
6.6448051181102361
 20
-2.7973513385826769
 30
0
 11
6.6544929133858268
 21
-2.805196338582677
 31
0
  0
LINE
  5
30
330
1B
100
AcDbEntity
  8
Edge.Cuts
  6
CONTINUOUS
100
AcDbLine
 10
6.6544929133858268
 20
-2.805196338582677
 30
0
 11
6.663307598425197
 21
-2.8140110236220472
 31
0
  0
LINE
  5
31
330
1B
100
AcDbEntity
  8
Edge.Cuts
  6
CONTINUOUS
100
AcDbLine
 10
6.663307598425197
 20
-2.8140110236220472
 30
0
 11
6.6711525984251967
 21
-2.8236988188976375
 31
0
  0
LINE
  5
32
330
1B
100
AcDbEntity
  8
Edge.Cuts
  6
CONTINUOUS
100
AcDbLine
 10
6.6711525984251967
 20
-2.8236988188976375
 30
0
 11
6.6779419685039372
 21
-2.8341535433070866
 31
0
  0
LINE
  5
33
330
1B
100
AcDbEntity
  8
Edge.Cuts
  6
CONTINUOUS
100
AcDbLine
 10
6.6779419685039372
 20
-2.8341535433070866
 30
0
 11
6.6836013779527557
 21
-2.8452607086614172
 31
0
  0
LINE
  5
34
330
1B
100
AcDbEntity
  8
Edge.Cuts
  6
CONTINUOUS
100
AcDbLine
 10
6.6836013779527557
 20
-2.8452607086614172
 30
0
 11
6.6880687401574805
 21
-2.8568985826771653
 31
0
  0
LINE
  5
35
330
1B
100
AcDbEntity
  8
Edge.Cuts
  6
CONTINUOUS
100
AcDbLine
 10
6.6880687401574805
 20
-2.8568985826771653
 30
0
 11
6.6912951181102365
 21
-2.8689396456692915
 31
0
  0
LINE
  5
36
330
1B
100
AcDbEntity
  8
Edge.Cuts
  6
CONTINUOUS
100
AcDbLine
 10
6.6912951181102365
 20
-2.8689396456692915
 30
0
 11
6.6932452362204726
 21
-2.8812520078740156
 31
0
  0
LINE
  5
37
330
1B
100
AcDbEntity
  8
Edge.Cuts
  6
CONTINUOUS
100
AcDbLine
 10
6.6932452362204726
 20
-2.8812520078740156
 30
0
 11
6.693897637795275
 21
-2.8937007874015745
 31
0
  0
LINE
  5
38
330
1B
100
AcDbEntity
  8
Edge.Cuts
  6
CONTINUOUS
100
AcDbLine
 10
6.693897637795275
 20
-2.8937007874015745
 30
0
 11
6.693897637795275
 21
-5.0196850393700787
 31
0
  0
LINE
  5
39
330
1B
100
AcDbEntity
  8
Edge.Cuts
  6
CONTINUOUS
100
AcDbLine
 10
6.693897637795275
 20
-5.0196850393700787
 30
0
 11
6.6932452362204726
 21
-5.0321338188976377
 31
0
  0
LINE
  5
3A
330
1B
100
AcDbEntity
  8
Edge.Cuts
  6
CONTINUOUS
100
AcDbLine
 10
6.6932452362204726
 20
-5.0321338188976377
 30
0
 11
6.6912951181102365
 21
-5.0444461811023622
 31
0
  0
LINE
  5
3B
330
1B
100
AcDbEntity
  8
Edge.Cuts
  6
CONTINUOUS
100
AcDbLine
 10
6.6912951181102365
 20
-5.0444461811023622
 30
0
 11
6.6880687401574805
 21
-5.0564872440944884
 31
0
  0
LINE
  5
3C
330
1B
100
AcDbEntity
  8
Edge.Cuts
  6
CONTINUOUS
100
AcDbLine
 10
6.6880687401574805
 20
-5.0564872440944884
 30
0
 11
6.6836013779527557
 21
-5.0681251181102365
 31
0
  0
LINE
  5
3D
330
1B
100
AcDbEntity
  8
Edge.Cuts
  6
CONTINUOUS
100
AcDbLine
 10
6.6836013779527557
 20
-5.0681251181102365
 30
0
 11
6.6779419685039372
 21
-5.0792322834645667
 31
0
  0
LINE
  5
3E
330
1B
100
AcDbEntity
  8
Edge.Cuts
  6
CONTINUOUS
100
AcDbLine
 10
6.6779419685039372
 20
-5.0792322834645667
 30
0
 11
6.6711525984251967
 21
-5.0896870078740157
 31
0
  0
LINE
  5
3F
330
1B
100
AcDbEntity
  8
Edge.Cuts
  6
CONTINUOUS
100
AcDbLine
 10
6.6711525984251967
 20
-5.0896870078740157
 30
0
 11
6.663307598425197
 21
-5.0993748031496064
 31
0
  0
LINE
  5
40
330
1B
100
AcDbEntity
  8
Edge.Cuts
  6
CONTINUOUS
100
AcDbLine
 10
6.663307598425197
 20
-5.0993748031496064
 30
0
 11
6.6544929133858268
 21
-5.1081894881889767
 31
0
  0
LINE
  5
41
330
1B
100
AcDbEntity
  8
Edge.Cuts
  6
CONTINUOUS
100
AcDbLine
 10
6.6544929133858268
 20
-5.1081894881889767
 30
0
 11
6.6448051181102361
 21
-5.1160344881889763
 31
0
  0
LINE
  5
42
330
1B
100
AcDbEntity
  8
Edge.Cuts
  6
CONTINUOUS
100
AcDbLine
 10
6.6448051181102361
 20
-5.1160344881889763
 30
0
 11
6.6343503937007871
 21
-5.1228238582677168
 31
0
  0
LINE
  5
43
330
1B
100
AcDbEntity
  8
Edge.Cuts
  6
CONTINUOUS
100
AcDbLine
 10
6.6343503937007871
 20
-5.1228238582677168
 30
0
 11
6.6232432283464568
 21
-5.1284832677165353
 31
0
  0
LINE
  5
44
330
1B
100
AcDbEntity
  8
Edge.Cuts
  6
CONTINUOUS
100
AcDbLine
 10
6.6232432283464568
 20
-5.1284832677165353
 30
0
 11
6.6116053543307087
 21
-5.1329506299212602
 31
0
  0
LINE
  5
45
330
1B
100
AcDbEntity
  8
Edge.Cuts
  6
CONTINUOUS
100
AcDbLine
 10
6.6116053543307087
 20
-5.1329506299212602
 30
0
 11
6.5995642913385826
 21
-5.1361770078740152
 31
0
  0
LINE
  5
46
330
1B
100
AcDbEntity
  8
Edge.Cuts
  6
CONTINUOUS
100
AcDbLine
 10
6.5995642913385826
 20
-5.1361770078740152
 30
0
 11
6.587251929133858
 21
-5.1381271259842523
 31
0
  0
LINE
  5
47
330
1B
100
AcDbEntity
  8
Edge.Cuts
  6
CONTINUOUS
100
AcDbLine
 10
6.587251929133858
 20
-5.1381271259842523
 30
0
 11
6.5748031496062991
 21
-5.1387795275590546
 31
0
  0
LINE
  5
48
330
1B
100
AcDbEntity
  8
Edge.Cuts
  6
CONTINUOUS
100
AcDbLine
 10
6.5748031496062991
 20
-5.1387795275590546
 30
0
 11
5.2362204724409445
 21
-5.1387795275590546
 31
0
  0
LINE
  5
49
330
1B
100
AcDbEntity
  8
Edge.Cuts
  6
CONTINUOUS
100
AcDbLine
 10
5.2362204724409445
 20
-5.1387795275590546
 30
0
 11
5.2237716929133855
 21
-5.1381271259842523
 31
0
  0
LINE
  5
4A
330
1B
100
AcDbEntity
  8
Edge.Cuts
  6
CONTINUOUS
100
AcDbLine
 10
5.2237716929133855
 20
-5.1381271259842523
 30
0
 11
5.211459330708661
 21
-5.1361770078740152
 31
0
  0
LINE
  5
4B
330
1B
100
AcDbEntity
  8
Edge.Cuts
  6
CONTINUOUS
100
AcDbLine
 10
5.211459330708661
 20
-5.1361770078740152
 30
0
 11
5.1994182677165357
 21
-5.1329506299212602
 31
0
  0
LINE
  5
4C
330
1B
100
AcDbEntity
  8
Edge.Cuts
  6
CONTINUOUS
100
AcDbLine
 10
5.1994182677165357
 20
-5.1329506299212602
 30
0
 11
5.1877803937007876
 21
-5.1284832677165353
 31
0
  0
LINE
  5
4D
330
1B
100
AcDbEntity
  8
Edge.Cuts
  6
CONTINUOUS
100
AcDbLine
 10
5.1877803937007876
 20
-5.1284832677165353
 30
0
 11
5.1766732283464565
 21
-5.1228238582677168
 31
0
  0
LINE
  5
4E
330
1B
100
AcDbEntity
  8
Edge.Cuts
  6
CONTINUOUS
100
AcDbLine
 10
5.1766732283464565
 20
-5.1228238582677168
 30
0
 11
5.1662185039370074
 21
-5.1160344881889763
 31
0
  0
LINE
  5
4F
330
1B
100
AcDbEntity
  8
Edge.Cuts
  6
CONTINUOUS
100
AcDbLine
 10
5.1662185039370074
 20
-5.1160344881889763
 30
0
 11
5.1565307086614176
 21
-5.1081894881889767
 31
0
  0
LINE
  5
50
330
1B
100
AcDbEntity
  8
Edge.Cuts
  6
CONTINUOUS
100
AcDbLine
 10
5.1565307086614176
 20
-5.1081894881889767
 30
0
 11
5.1477160236220474
 21
-5.0993748031496064
 31
0
  0
LINE
  5
51
330
1B
100
AcDbEntity
  8
Edge.Cuts
  6
CONTINUOUS
100
AcDbLine
 10
5.1477160236220474
 20
-5.0993748031496064
 30
0
 11
5.1398710236220468
 21
-5.0896870078740157
 31
0
  0
LINE
  5
52
330
1B
100
AcDbEntity
  8
Edge.Cuts
  6
CONTINUOUS
100
AcDbLine
 10
5.1398710236220468
 20
-5.0896870078740157
 30
0
 11
5.1330816535433073
 21
-5.0792322834645667
 31
0
  0
LINE
  5
53
330
1B
100
AcDbEntity
  8
Edge.Cuts
  6
CONTINUOUS
100
AcDbLine
 10
5.1330816535433073
 20
-5.0792322834645667
 30
0
 11
5.1274222440944879
 21
-5.0681251181102365
 31
0
  0
LINE
  5
54
330
1B
100
AcDbEntity
  8
Edge.Cuts
  6
CONTINUOUS
100
AcDbLine
 10
5.1274222440944879
 20
-5.0681251181102365
 30
0
 11
5.1229548818897639
 21
-5.0564872440944884
 31
0
  0
LINE
  5
55
330
1B
100
AcDbEntity
  8
Edge.Cuts
  6
CONTINUOUS
100
AcDbLine
 10
5.1229548818897639
 20
-5.0564872440944884
 30
0
 11
5.119728503937008
 21
-5.0444461811023622
 31
0
  0
LINE
  5
56
330
1B
100
AcDbEntity
  8
Edge.Cuts
  6
CONTINUOUS
100
AcDbLine
 10
5.119728503937008
 20
-5.0444461811023622
 30
0
 11
5.1177783858267718
 21
-5.0321338188976377
 31
0
  0
LINE
  5
57
330
1B
100
AcDbEntity
  8
Edge.Cuts
  6
CONTINUOUS
100
AcDbLine
 10
5.1177783858267718
 20
-5.0321338188976377
 30
0
 11
5.1171259842519685
 21
-5.0196850393700787
 31
0
  0
LINE
  5
58
330
1B
100
AcDbEntity
  8
Edge.Cuts
  6
CONTINUOUS
100
AcDbLine
 10
5.1171259842519685
 20
-5.0196850393700787
 30
0
 11
5.1171259842519685
 21
-2.8937007874015745
 31
0
  0
LINE
  5
59
330
1B
100
AcDbEntity
  8
Edge.Cuts
  6
CONTINUOUS
100
AcDbLine
 10
5.1171259842519685
 20
-2.8937007874015745
 30
0
 11
5.1177783858267718
 21
-2.8812520078740156
 31
0
  0
LINE
  5
5A
330
1B
100
AcDbEntity
  8
Edge.Cuts
  6
CONTINUOUS
100
AcDbLine
 10
5.1177783858267718
 20
-2.8812520078740156
 30
0
 11
5.119728503937008
 21
-2.8689396456692915
 31
0
  0
LINE
  5
5B
330
1B
100
AcDbEntity
  8
Edge.Cuts
  6
CONTINUOUS
100
AcDbLine
 10
5.119728503937008
 20
-2.8689396456692915
 30
0
 11
5.1229548818897639
 21
-2.8568985826771653
 31
0
  0
LINE
  5
5C
330
1B
100
AcDbEntity
  8
Edge.Cuts
  6
CONTINUOUS
100
AcDbLine
 10
5.1229548818897639
 20
-2.8568985826771653
 30
0
 11
5.1274222440944879
 21
-2.8452607086614172
 31
0
  0
LINE
  5
5D
330
1B
100
AcDbEntity
  8
Edge.Cuts
  6
CONTINUOUS
100
AcDbLine
 10
5.1274222440944879
 20
-2.8452607086614172
 30
0
 11
5.1330816535433073
 21
-2.8341535433070866
 31
0
  0
LINE
  5
5E
330
1B
100
AcDbEntity
  8
Edge.Cuts
  6
CONTINUOUS
100
AcDbLine
 10
5.1330816535433073
 20
-2.8341535433070866
 30
0
 11
5.1398710236220468
 21
-2.8236988188976375
 31
0
  0
LINE
  5
5F
330
1B
100
AcDbEntity
  8
Edge.Cuts
  6
CONTINUOUS
100
AcDbLine
 10
5.1398710236220468
 20
-2.8236988188976375
 30
0
 11
5.1477160236220474
 21
-2.8140110236220472
 31
0
  0
LINE
  5
60
330
1B
100
AcDbEntity
  8
Edge.Cuts
  6
CONTINUOUS
100
AcDbLine
 10
5.1477160236220474
 20
-2.8140110236220472
 30
0
 11
5.1565307086614176
 21
-2.805196338582677
 31
0
  0
LINE
  5
61
330
1B
100
AcDbEntity
  8
Edge.Cuts
  6
CONTINUOUS
100
AcDbLine
 10
5.1565307086614176
 20
-2.805196338582677
 30
0
 11
5.1662185039370074
 21
-2.7973513385826769
 31
0
  0
LINE
  5
62
330
1B
100
AcDbEntity
  8
Edge.Cuts
  6
CONTINUOUS
100
AcDbLine
 10
5.1662185039370074
 20
-2.7973513385826769
 30
0
 11
5.1766732283464565
 21
-2.7905619685039369
 31
0
  0
LINE
  5
63
330
1B
100
AcDbEntity
  8
Edge.Cuts
  6
CONTINUOUS
100
AcDbLine
 10
5.1766732283464565
 20
-2.7905619685039369
 30
0
 11
5.1877803937007876
 21
-2.784902559055118
 31
0
  0
LINE
  5
64
330
1B
100
AcDbEntity
  8
Edge.Cuts
  6
CONTINUOUS
100
AcDbLine
 10
5.1877803937007876
 20
-2.784902559055118
 30
0
 11
5.1994182677165357
 21
-2.7804351968503935
 31
0
  0
LINE
  5
65
330
1B
100
AcDbEntity
  8
Edge.Cuts
  6
CONTINUOUS
100
AcDbLine
 10
5.1994182677165357
 20
-2.7804351968503935
 30
0
 11
5.211459330708661
 21
-2.7772088188976376
 31
0
  0
LINE
  5
66
330
1B
100
AcDbEntity
  8
Edge.Cuts
  6
CONTINUOUS
100
AcDbLine
 10
5.211459330708661
 20
-2.7772088188976376
 30
0
 11
5.2237716929133855
 21
-2.7752587007874014
 31
0
  0
LINE
  5
67
330
1B
100
AcDbEntity
  8
Edge.Cuts
  6
CONTINUOUS
100
AcDbLine
 10
5.2237716929133855
 20
-2.7752587007874014
 30
0
 11
5.2362204724409445
 21
-2.7746062992125982
 31
0
  0
LINE
  5
68
330
1B
100
AcDbEntity
  8
Edge.Cuts
  6
CONTINUOUS
100
AcDbLine
 10
5.2362204724409445
 20
-2.7746062992125982
 30
0
 11
6.5748031496062991
 21
-2.7746062992125982
 31
0
  0
LINE
  5
69
330
1B
100
AcDbEntity
  8
Edge.Cuts
  6
CONTINUOUS
100
AcDbLine
 10
5.2362204724409445
 20
-2.776574803149606
 30
0
 11
5.2300821653543306
 21
-2.776574803149606
 31
0
  0
LINE
  5
6A
330
1B
100
AcDbEntity
  8
Edge.Cuts
  6
CONTINUOUS
100
AcDbLine
 10
5.2300821653543306
 20
-2.776574803149606
 30
0
 11
5.2178727952755901
 21
-2.7778580708661416
 31
0
  0
LINE
  5
6B
330
1B
100
AcDbEntity
  8
Edge.Cuts
  6
CONTINUOUS
100
AcDbLine
 10
5.2178727952755901
 20
-2.7778580708661416
 30
0
 11
5.2058644488188976
 21
-2.7804105118110236
 31
0
  0
LINE
  5
6C
330
1B
100
AcDbEntity
  8
Edge.Cuts
  6
CONTINUOUS
100
AcDbLine
 10
5.2058644488188976
 20
-2.7804105118110236
 30
0
 11
5.1941886614173223
 21
-2.784204212598425
 31
0
  0
LINE
  5
6D
330
1B
100
AcDbEntity
  8
Edge.Cuts
  6
CONTINUOUS
100
AcDbLine
 10
5.1941886614173223
 20
-2.784204212598425
 30
0
 11
5.1829734251968507
 21
-2.7891975590551179
 31
0
  0
LINE
  5
6E
330
1B
100
AcDbEntity
  8
Edge.Cuts
  6
CONTINUOUS
100
AcDbLine
 10
5.1829734251968507
 20
-2.7891975590551179
 30
0
 11
5.1723415354330706
 21
-2.7953358661417322
 31
0
  0
LINE
  5
6F
330
1B
100
AcDbEntity
  8
Edge.Cuts
  6
CONTINUOUS
100
AcDbLine
 10
5.1723415354330706
 20
-2.7953358661417322
 30
0
 11
5.1624095669291341
 21
-2.8025518897637793
 31
0
  0
LINE
  5
70
330
1B
100
AcDbEntity
  8
Edge.Cuts
  6
CONTINUOUS
100
AcDbLine
 10
5.1624095669291341
 20
-2.8025518897637793
 30
0
 11
5.1532862598425195
 21
-2.8107665748031496
 31
0
  0
LINE
  5
71
330
1B
100
AcDbEntity
  8
Edge.Cuts
  6
CONTINUOUS
100
AcDbLine
 10
5.1532862598425195
 20
-2.8107665748031496
 30
0
 11
5.1450715748031497
 21
-2.8198898818897637
 31
0
  0
LINE
  5
72
330
1B
100
AcDbEntity
  8
Edge.Cuts
  6
CONTINUOUS
100
AcDbLine
 10
5.1450715748031497
 20
-2.8198898818897637
 30
0
 11
5.1378555511811026
 21
-2.8298218503937007
 31
0
  0
LINE
  5
73
330
1B
100
AcDbEntity
  8
Edge.Cuts
  6
CONTINUOUS
100
AcDbLine
 10
5.1378555511811026
 20
-2.8298218503937007
 30
0
 11
5.1317172440944878
 21
-2.8404537401574803
 31
0
  0
LINE
  5
74
330
1B
100
AcDbEntity
  8
Edge.Cuts
  6
CONTINUOUS
100
AcDbLine
 10
5.1317172440944878
 20
-2.8404537401574803
 30
0
 11
5.1267238976377953
 21
-2.8516689763779528
 31
0
  0
LINE
  5
75
330
1B
100
AcDbEntity
  8
Edge.Cuts
  6
CONTINUOUS
100
AcDbLine
 10
5.1267238976377953
 20
-2.8516689763779528
 30
0
 11
5.122930196850394
 21
-2.8633447637795273
 31
0
  0
LINE
  5
76
330
1B
100
AcDbEntity
  8
Edge.Cuts
  6
CONTINUOUS
100
AcDbLine
 10
5.122930196850394
 20
-2.8633447637795273
 30
0
 11
5.1203777559055119
 21
-2.8753531102362202
 31
0
  0
LINE
  5
77
330
1B
100
AcDbEntity
  8
Edge.Cuts
  6
CONTINUOUS
100
AcDbLine
 10
5.1203777559055119
 20
-2.8753531102362202
 30
0
 11
5.1190944881889759
 21
-2.8875624803149607
 31
0
  0
LINE
  5
78
330
1B
100
AcDbEntity
  8
Edge.Cuts
  6
CONTINUOUS
100
AcDbLine
 10
5.1190944881889759
 20
-2.8875624803149607
 30
0
 11
5.1190944881889759
 21
-2.8937007874015745
 31
0
  0
LINE
  5
79
330
1B
100
AcDbEntity
  8
Edge.Cuts
  6
CONTINUOUS
100
AcDbLine
 10
5.1190944881889759
 20
-2.8937007874015745
 30
0
 11
5.1190944881889759
 21
-5.0196850393700787
 31
0
  0
LINE
  5
7A
330
1B
100
AcDbEntity
  8
Edge.Cuts
  6
CONTINUOUS
100
AcDbLine
 10
5.1190944881889759
 20
-5.0196850393700787
 30
0
 11
5.1190944881889759
 21
-5.0258233464566926
 31
0
  0
LINE
  5
7B
330
1B
100
AcDbEntity
  8
Edge.Cuts
  6
CONTINUOUS
100
AcDbLine
 10
5.1190944881889759
 20
-5.0258233464566926
 30
0
 11
5.1203777559055119
 21
-5.0380327165354331
 31
0
  0
LINE
  5
7C
330
1B
100
AcDbEntity
  8
Edge.Cuts
  6
CONTINUOUS
100
AcDbLine
 10
5.1203777559055119
 20
-5.0380327165354331
 30
0
 11
5.122930196850394
 21
-5.0500410629921255
 31
0
  0
LINE
  5
7D
330
1B
100
AcDbEntity
  8
Edge.Cuts
  6
CONTINUOUS
100
AcDbLine
 10
5.122930196850394
 20
-5.0500410629921255
 30
0
 11
5.1267238976377953
 21
-5.0617168503937009
 31
0
  0
LINE
  5
7E
330
1B
100
AcDbEntity
  8
Edge.Cuts
  6
CONTINUOUS
100
AcDbLine
 10
5.1267238976377953
 20
-5.0617168503937009
 30
0
 11
5.1317172440944878
 21
-5.0729320866141734
 31
0
  0
LINE
  5
7F
330
1B
100
AcDbEntity
  8
Edge.Cuts
  6
CONTINUOUS
100
AcDbLine
 10
5.1317172440944878
 20
-5.0729320866141734
 30
0
 11
5.1378555511811026
 21
-5.0835639763779525
 31
0
  0
LINE
  5
80
330
1B
100
AcDbEntity
  8
Edge.Cuts
  6
CONTINUOUS
100
AcDbLine
 10
5.1378555511811026
 20
-5.0835639763779525
 30
0
 11
5.1450715748031497
 21
-5.0934959448818899
 31
0
  0
LINE
  5
81
330
1B
100
AcDbEntity
  8
Edge.Cuts
  6
CONTINUOUS
100
AcDbLine
 10
5.1450715748031497
 20
-5.0934959448818899
 30
0
 11
5.1532862598425195
 21
-5.1026192519685036
 31
0
  0
LINE
  5
82
330
1B
100
AcDbEntity
  8
Edge.Cuts
  6
CONTINUOUS
100
AcDbLine
 10
5.1532862598425195
 20
-5.1026192519685036
 30
0
 11
5.1624095669291341
 21
-5.1108339370078735
 31
0
  0
LINE
  5
83
330
1B
100
AcDbEntity
  8
Edge.Cuts
  6
CONTINUOUS
100
AcDbLine
 10
5.1624095669291341
 20
-5.1108339370078735
 30
0
 11
5.1723415354330706
 21
-5.1180499606299215
 31
0
  0
LINE
  5
84
330
1B
100
AcDbEntity
  8
Edge.Cuts
  6
CONTINUOUS
100
AcDbLine
 10
5.1723415354330706
 20
-5.1180499606299215
 30
0
 11
5.1829734251968507
 21
-5.1241882677165353
 31
0
  0
LINE
  5
85
330
1B
100
AcDbEntity
  8
Edge.Cuts
  6
CONTINUOUS
100
AcDbLine
 10
5.1829734251968507
 20
-5.1241882677165353
 30
0
 11
5.1941886614173223
 21
-5.1291816141732278
 31
0
  0
LINE
  5
86
330
1B
100
AcDbEntity
  8
Edge.Cuts
  6
CONTINUOUS
100
AcDbLine
 10
5.1941886614173223
 20
-5.1291816141732278
 30
0
 11
5.2058644488188976
 21
-5.1329753149606301
 31
0
  0
LINE
  5
87
330
1B
100
AcDbEntity
  8
Edge.Cuts
  6
CONTINUOUS
100
AcDbLine
 10
5.2058644488188976
 20
-5.1329753149606301
 30
0
 11
5.2178727952755901
 21
-5.1355277559055121
 31
0
  0
LINE
  5
88
330
1B
100
AcDbEntity
  8
Edge.Cuts
  6
CONTINUOUS
100
AcDbLine
 10
5.2178727952755901
 20
-5.1355277559055121
 30
0
 11
5.2300821653543306
 21
-5.1368110236220472
 31
0
  0
LINE
  5
89
330
1B
100
AcDbEntity
  8
Edge.Cuts
  6
CONTINUOUS
100
AcDbLine
 10
5.2300821653543306
 20
-5.1368110236220472
 30
0
 11
5.2362204724409445
 21
-5.1368110236220472
 31
0
  0
LINE
  5
8A
330
1B
100
AcDbEntity
  8
Edge.Cuts
  6
CONTINUOUS
100
AcDbLine
 10
5.2362204724409445
 20
-5.1368110236220472
 30
0
 11
6.5748031496062991
 21
-5.1368110236220472
 31
0
  0
LINE
  5
8B
330
1B
100
AcDbEntity
  8
Edge.Cuts
  6
CONTINUOUS
100
AcDbLine
 10
6.5748031496062991
 20
-5.1368110236220472
 30
0
 11
6.580941456692913
 21
-5.1368110236220472
 31
0
  0
LINE
  5
8C
330
1B
100
AcDbEntity
  8
Edge.Cuts
  6
CONTINUOUS
100
AcDbLine
 10
6.580941456692913
 20
-5.1368110236220472
 30
0
 11
6.5931508267716534
 21
-5.1355277559055121
 31
0
  0
LINE
  5
8D
330
1B
100
AcDbEntity
  8
Edge.Cuts
  6
CONTINUOUS
100
AcDbLine
 10
6.5931508267716534
 20
-5.1355277559055121
 30
0
 11
6.6051591732283459
 21
-5.1329753149606301
 31
0
  0
LINE
  5
8E
330
1B
100
AcDbEntity
  8
Edge.Cuts
  6
CONTINUOUS
100
AcDbLine
 10
6.6051591732283459
 20
-5.1329753149606301
 30
0
 11
6.6168349606299213
 21
-5.1291816141732278
 31
0
  0
LINE
  5
8F
330
1B
100
AcDbEntity
  8
Edge.Cuts
  6
CONTINUOUS
100
AcDbLine
 10
6.6168349606299213
 20
-5.1291816141732278
 30
0
 11
6.6280501968503938
 21
-5.1241882677165353
 31
0
  0
LINE
  5
90
330
1B
100
AcDbEntity
  8
Edge.Cuts
  6
CONTINUOUS
100
AcDbLine
 10
6.6280501968503938
 20
-5.1241882677165353
 30
0
 11
6.6386820866141729
 21
-5.1180499606299215
 31
0
  0
LINE
  5
91
330
1B
100
AcDbEntity
  8
Edge.Cuts
  6
CONTINUOUS
100
AcDbLine
 10
6.6386820866141729
 20
-5.1180499606299215
 30
0
 11
6.6486140551181103
 21
-5.1108339370078735
 31
0
  0
LINE
  5
92
330
1B
100
AcDbEntity
  8
Edge.Cuts
  6
CONTINUOUS
100
AcDbLine
 10
6.6486140551181103
 20
-5.1108339370078735
 30
0
 11
6.657737362204724
 21
-5.1026192519685036
 31
0
  0
LINE
  5
93
330
1B
100
AcDbEntity
  8
Edge.Cuts
  6
CONTINUOUS
100
AcDbLine
 10
6.657737362204724
 20
-5.1026192519685036
 30
0
 11
6.6659520472440947
 21
-5.0934959448818899
 31
0
  0
LINE
  5
94
330
1B
100
AcDbEntity
  8
Edge.Cuts
  6
CONTINUOUS
100
AcDbLine
 10
6.6659520472440947
 20
-5.0934959448818899
 30
0
 11
6.6731680708661418
 21
-5.0835639763779525
 31
0
  0
LINE
  5
95
330
1B
100
AcDbEntity
  8
Edge.Cuts
  6
CONTINUOUS
100
AcDbLine
 10
6.6731680708661418
 20
-5.0835639763779525
 30
0
 11
6.6793063779527557
 21
-5.0729320866141734
 31
0
  0
LINE
  5
96
330
1B
100
AcDbEntity
  8
Edge.Cuts
  6
CONTINUOUS
100
AcDbLine
 10
6.6793063779527557
 20
-5.0729320866141734
 30
0
 11
6.6842997244094491
 21
-5.0617168503937009
 31
0
  0
LINE
  5
97
330
1B
100
AcDbEntity
  8
Edge.Cuts
  6
CONTINUOUS
100
AcDbLine
 10
6.6842997244094491
 20
-5.0617168503937009
 30
0
 11
6.6880934251968505
 21
-5.0500410629921255
 31
0
  0
LINE
  5
98
330
1B
100
AcDbEntity
  8
Edge.Cuts
  6
CONTINUOUS
100
AcDbLine
 10
6.6880934251968505
 20
-5.0500410629921255
 30
0
 11
6.6906458661417325
 21
-5.0380327165354331
 31
0
  0
LINE
  5
99
330
1B
100
AcDbEntity
  8
Edge.Cuts
  6
CONTINUOUS
100
AcDbLine
 10
6.6906458661417325
 20
-5.0380327165354331
 30
0
 11
6.6919291338582676
 21
-5.0258233464566926
 31
0
  0
LINE
  5
9A
330
1B
100
AcDbEntity
  8
Edge.Cuts
  6
CONTINUOUS
100
AcDbLine
 10
6.6919291338582676
 20
-5.0258233464566926
 30
0
 11
6.6919291338582676
 21
-5.0196850393700787
 31
0
  0
LINE
  5
9B
330
1B
100
AcDbEntity
  8
Edge.Cuts
  6
CONTINUOUS
100
AcDbLine
 10
6.6919291338582676
 20
-5.0196850393700787
 30
0
 11
6.6919291338582676
 21
-2.8937007874015745
 31
0
  0
LINE
  5
9C
330
1B
100
AcDbEntity
  8
Edge.Cuts
  6
CONTINUOUS
100
AcDbLine
 10
6.6919291338582676
 20
-2.8937007874015745
 30
0
 11
6.6919291338582676
 21
-2.8875624803149607
 31
0
  0
LINE
  5
9D
330
1B
100
AcDbEntity
  8
Edge.Cuts
  6
CONTINUOUS
100
AcDbLine
 10
6.6919291338582676
 20
-2.8875624803149607
 30
0
 11
6.6906458661417325
 21
-2.8753531102362202
 31
0
  0
LINE
  5
9E
330
1B
100
AcDbEntity
  8
Edge.Cuts
  6
CONTINUOUS
100
AcDbLine
 10
6.6906458661417325
 20
-2.8753531102362202
 30
0
 11
6.6880934251968505
 21
-2.8633447637795273
 31
0
  0
LINE
  5
9F
330
1B
100
AcDbEntity
  8
Edge.Cuts
  6
CONTINUOUS
100
AcDbLine
 10
6.6880934251968505
 20
-2.8633447637795273
 30
0
 11
6.6842997244094491
 21
-2.8516689763779528
 31
0
  0
LINE
  5
A0
330
1B
100
AcDbEntity
  8
Edge.Cuts
  6
CONTINUOUS
100
AcDbLine
 10
6.6842997244094491
 20
-2.8516689763779528
 30
0
 11
6.6793063779527557
 21
-2.8404537401574803
 31
0
  0
LINE
  5
A1
330
1B
100
AcDbEntity
  8
Edge.Cuts
  6
CONTINUOUS
100
AcDbLine
 10
6.6793063779527557
 20
-2.8404537401574803
 30
0
 11
6.6731680708661418
 21
-2.8298218503937007
 31
0
  0
LINE
  5
A2
330
1B
100
AcDbEntity
  8
Edge.Cuts
  6
CONTINUOUS
100
AcDbLine
 10
6.6731680708661418
 20
-2.8298218503937007
 30
0
 11
6.6659520472440947
 21
-2.8198898818897637
 31
0
  0
LINE
  5
A3
330
1B
100
AcDbEntity
  8
Edge.Cuts
  6
CONTINUOUS
100
AcDbLine
 10
6.6659520472440947
 20
-2.8198898818897637
 30
0
 11
6.657737362204724
 21
-2.8107665748031496
 31
0
  0
LINE
  5
A4
330
1B
100
AcDbEntity
  8
Edge.Cuts
  6
CONTINUOUS
100
AcDbLine
 10
6.657737362204724
 20
-2.8107665748031496
 30
0
 11
6.6486140551181103
 21
-2.8025518897637793
 31
0
  0
LINE
  5
A5
330
1B
100
AcDbEntity
  8
Edge.Cuts
  6
CONTINUOUS
100
AcDbLine
 10
6.6486140551181103
 20
-2.8025518897637793
 30
0
 11
6.6386820866141729
 21
-2.7953358661417322
 31
0
  0
LINE
  5
A6
330
1B
100
AcDbEntity
  8
Edge.Cuts
  6
CONTINUOUS
100
AcDbLine
 10
6.6386820866141729
 20
-2.7953358661417322
 30
0
 11
6.6280501968503938
 21
-2.7891975590551179
 31
0
  0
LINE
  5
A7
330
1B
100
AcDbEntity
  8
Edge.Cuts
  6
CONTINUOUS
100
AcDbLine
 10
6.6280501968503938
 20
-2.7891975590551179
 30
0
 11
6.6168349606299213
 21
-2.784204212598425
 31
0
  0
LINE
  5
A8
330
1B
100
AcDbEntity
  8
Edge.Cuts
  6
CONTINUOUS
100
AcDbLine
 10
6.6168349606299213
 20
-2.784204212598425
 30
0
 11
6.6051591732283459
 21
-2.7804105118110236
 31
0
  0
LINE
  5
A9
330
1B
100
AcDbEntity
  8
Edge.Cuts
  6
CONTINUOUS
100
AcDbLine
 10
6.6051591732283459
 20
-2.7804105118110236
 30
0
 11
6.5931508267716534
 21
-2.7778580708661416
 31
0
  0
LINE
  5
AA
330
1B
100
AcDbEntity
  8
Edge.Cuts
  6
CONTINUOUS
100
AcDbLine
 10
6.5931508267716534
 20
-2.7778580708661416
 30
0
 11
6.580941456692913
 21
-2.776574803149606
 31
0
  0
LINE
  5
AB
330
1B
100
AcDbEntity
  8
Edge.Cuts
  6
CONTINUOUS
100
AcDbLine
 10
6.580941456692913
 20
-2.776574803149606
 30
0
 11
6.5748031496062991
 21
-2.776574803149606
 31
0
  0
LINE
  5
AC
330
1B
100
AcDbEntity
  8
Edge.Cuts
  6
CONTINUOUS
100
AcDbLine
 10
6.5748031496062991
 20
-2.776574803149606
 30
0
 11
5.2362204724409445
 21
-2.776574803149606
 31
0
  0
ENDSEC
  0
SECTION
  2
OBJECTS
  0
DICTIONARY
  5
21
330
0
100
AcDbDictionary
281
1
  3
ACAD_GROUP
350
AD
  3
ACAD_LAYOUT
350
22
  3
ACAD_PLOTSTYLENAME
350
11
  0
DICTIONARY
  5
AD
330
21
100
AcDbDictionary
281
1
  0
ACDBDICTIONARYWDFLT
  5
11
330
21
100
AcDbDictionary
281
1
  3
Normal
350
10
100
AcDbDictionaryWithDefault
340
10
  0
ACDBPLACEHOLDER
  5
10
330
11
  0
DICTIONARY
  5
22
330
21
100
AcDbDictionary
281
1
  3
Model
350
1E
  3
Layout1
350
1F
  3
Layout2
350
20
  0
LAYOUT
  5
1E
330
22
100
AcDbPlotSettings
  1

  2
none_device
  4
A3
  6

 40
0.0
 41
0.0
 42
0.0
 43
0.0
 44
420.0
 45
297.0
 46
0.0
 47
0.0
 48
0.0
 49
0.0
140
0.0
141
0.0
142
1.0
143
1.0
 70
1024
 72
1
 73
0
 74
5
  7

 75
16
 76
0
 77
2
 78
300
147
1.0
148
0.0
149
0.0
100
AcDbLayout
  1
Model
 70
1
 71
0
 10
0.0
 20
0.0
 11
420.0
 21
297.0
 12
0.0
 22
0.0
 32
0.0
 14
1e+20
 24
1e+20
 34
1e+20
 15
-1e+20
 25
-1e+20
 35
-1e+20
146
0.0
 13
0.0
 23
0.0
 33
0.0
 16
1.0
 26
0.0
 36
0.0
 17
0.0
 27
1.0
 37
0.0
 76
0
330
1B
  0
LAYOUT
  5
1F
330
22
100
AcDbPlotSettings
  1

  2
none_device
  4
A3
  6

 40
0.0
 41
0.0
 42
0.0
 43
0.0
 44
420.0
 45
297.0
 46
0.0
 47
0.0
 48
0.0
 49
0.0
140
0.0
141
0.0
142
1.0
143
1.0
 70
0
 72
1
 73
0
 74
5
  7

 75
16
 76
0
 77
2
 78
300
147
1.0
148
0.0
149
0.0
100
AcDbLayout
  1
Layout1
 70
1
 71
1
 10
0.0
 20
0.0
 11
420.0
 21
297.0
 12
0.0
 22
0.0
 32
0.0
 14
1e+20
 24
1e+20
 34
1e+20
 15
-1e+20
 25
-1e+20
 35
-1e+20
146
0.0
 13
0.0
 23
0.0
 33
0.0
 16
1.0
 26
0.0
 36
0.0
 17
0.0
 27
1.0
 37
0.0
 76
0
330
1C
  0
LAYOUT
  5
20
330
22
100
AcDbPlotSettings
  1

  2
none_device
  4
A3
  6

 40
0.0
 41
0.0
 42
0.0
 43
0.0
 44
420.0
 45
297.0
 46
0.0
 47
0.0
 48
0.0
 49
0.0
140
0.0
141
0.0
142
1.0
143
1.0
 70
0
 72
1
 73
0
 74
5
  7

 75
16
 76
0
 77
2
 78
300
147
1.0
148
0.0
149
0.0
100
AcDbLayout
  1
Layout2
 70
1
 71
2
 10
0.0
 20
0.0
 11
420.0
 21
297.0
 12
0.0
 22
0.0
 32
0.0
 14
1e+20
 24
1e+20
 34
1e+20
 15
-1e+20
 25
-1e+20
 35
-1e+20
146
0.0
 13
0.0
 23
0.0
 33
0.0
 16
1.0
 26
0.0
 36
0.0
 17
0.0
 27
1.0
 37
0.0
 76
0
330
1D
  0
ENDSEC
  0
EOF
